<svg width="97" height="97" viewBox="0 0 97 97" fill="none" xmlns="http://www.w3.org/2000/svg">
<path d="M90.3436 45.1718V51.1947H18.0687V18.0687H48.1833V12.0458H15.0573C14.2586 12.0458 13.4926 12.3631 12.9279 12.9279C12.3631 13.4926 12.0458 14.2586 12.0458 15.0573V51.1947H6.02291V9.03436C6.02291 8.23567 6.34018 7.4697 6.90494 6.90494C7.4697 6.34018 8.23567 6.02291 9.03436 6.02291H54.2062V0H9.03436C6.6383 0 4.34037 0.951832 2.6461 2.6461C0.951832 4.34037 0 6.6383 0 9.03436L0 69.2634C0 70.0621 0.317277 70.8281 0.882034 71.3929C1.44679 71.9576 2.21277 72.2749 3.01145 72.2749H29.6628L27.5247 87.3322H24.0916C23.2929 87.3322 22.527 87.6494 21.9622 88.2142C21.3975 88.779 21.0802 89.5449 21.0802 90.3436H15.0573V96.3665H81.3093V90.3436H75.2863C75.2863 89.5449 74.9691 88.779 74.4043 88.2142C73.8396 87.6494 73.0736 87.3322 72.2749 87.3322H68.872L66.7338 72.2749H93.3551C94.1538 72.2749 94.9197 71.9576 95.4845 71.3929C96.0492 70.8281 96.3665 70.0621 96.3665 69.2634V45.1718H90.3436ZM33.5777 87.3322L35.7158 72.2749H60.6206L62.7587 87.3322H33.5777ZM90.3436 66.252H6.02291V57.2176H90.3436V66.252Z" fill="#800303"/>
</svg>
