<svg width="6" height="9" viewBox="0 0 6 9" fill="none" xmlns="http://www.w3.org/2000/svg">
<path d="M3.55184 1.09518C3.16189 0.705227 2.70564 0.315277 2.15581 0.280182C1.94092 0.280619 1.72886 0.32918 1.53519 0.422302C1.34153 0.515423 1.17117 0.650742 1.03665 0.818316C0.768184 1.15847 0.589814 1.56082 0.51802 1.98817C0.333563 3.02371 0.415411 4.08916 0.755885 5.08438C1.14584 6.30102 1.84385 7.53326 3.0293 7.9973C3.23335 8.09573 3.45932 8.1399 3.68541 8.12556C3.91149 8.11121 4.13007 8.03884 4.32004 7.91541C4.57518 7.65974 4.73367 7.32345 4.76848 6.96393C5.23252 4.66713 5.30661 2.80316 3.55184 1.09518Z" fill="#F7AF87"/>
</svg>
