<svg width="18" height="30" viewBox="0 0 18 30" fill="none" xmlns="http://www.w3.org/2000/svg">
<path d="M6.3753 21.2453V20.9755C6.39424 19.2141 6.56943 17.8126 6.90087 16.7709C7.24178 15.7292 7.72473 14.8864 8.34973 14.2425C8.97473 13.5986 9.72757 13.0114 10.6083 12.4811C11.1764 12.1213 11.6878 11.7188 12.1423 11.2737C12.5969 10.8287 12.9567 10.3173 13.2219 9.73966C13.487 9.162 13.6196 8.5228 13.6196 7.82204C13.6196 6.97924 13.4208 6.25007 13.023 5.63454C12.6253 5.01901 12.095 4.54553 11.4321 4.21409C10.7787 3.87318 10.0495 3.70272 9.24462 3.70272C8.51545 3.70272 7.81943 3.85424 7.15655 4.15727C6.49367 4.4603 5.94443 4.93379 5.50882 5.57772C5.07322 6.21219 4.82227 7.03132 4.75598 8.03511H0.437799C0.504087 6.33057 0.934959 4.89117 1.73041 3.71693C2.52587 2.53322 3.577 1.63833 4.88382 1.03227C6.20011 0.426209 7.65371 0.123179 9.24462 0.123179C10.987 0.123179 12.5117 0.449884 13.8185 1.10329C15.1253 1.74723 16.1386 2.65159 16.8583 3.81636C17.5874 4.97166 17.952 6.3211 17.952 7.86466C17.952 8.92526 17.7863 9.8817 17.4548 10.734C17.1234 11.5768 16.6499 12.3296 16.0344 12.9925C15.4283 13.6554 14.6992 14.2425 13.8469 14.7539C13.042 15.2558 12.3886 15.7766 11.8867 16.3164C11.3942 16.8561 11.0344 17.4953 10.8071 18.234C10.5798 18.9726 10.4567 19.8864 10.4378 20.9755V21.2453H6.3753ZM8.52019 29.8817C7.74367 29.8817 7.07606 29.6071 6.51735 29.0578C5.95863 28.4991 5.67928 27.8268 5.67928 27.0408C5.67928 26.2643 5.95863 25.6014 6.51735 25.0522C7.07606 24.4934 7.74367 24.2141 8.52019 24.2141C9.28723 24.2141 9.95011 24.4934 10.5088 25.0522C11.077 25.6014 11.3611 26.2643 11.3611 27.0408C11.3611 27.5616 11.2285 28.0398 10.9634 28.4755C10.7077 28.9016 10.3668 29.2425 9.94064 29.4982C9.5145 29.7539 9.04102 29.8817 8.52019 29.8817Z" fill="black"/>
</svg>
