<svg width="32" height="25" viewBox="0 0 32 25" fill="none" xmlns="http://www.w3.org/2000/svg">
<path d="M1.57528 10.2854C2.67104 6.64323 5.3929 3.26626 9.10133 2.42007C10.2088 2.1666 11.3513 2.1471 12.4666 1.93263C13.1451 1.80004 13.808 1.60117 14.4787 1.43349C17.2286 0.708209 20.1229 0.735144 22.8588 1.51148C25.6054 2.30782 27.96 4.09283 29.4684 6.52234C30.8411 8.86205 31.2271 11.6541 31.0282 14.3526C30.8294 17.051 29.2657 21.8318 28.5287 24.4328C27.2184 22.717 28.0919 17.8504 26.2591 16.704C24.9567 15.889 23.2799 16.2594 21.763 16.5168C18.245 17.1213 14.6398 16.9885 11.1759 16.1268C9.53417 15.7135 7.84959 15.1363 6.1923 15.4717C4.75338 15.7603 4.24254 16.8638 3.46264 18.0883C2.90891 18.9345 2.57745 23.1576 2.10561 23.9804C1.00595 23.5905 0.791479 16.8989 0.803177 15.9357C0.794484 14.0254 1.0544 12.1233 1.57528 10.2854Z" fill="#800303"/>
</svg>
