<svg width="4" height="6" viewBox="0 0 4 6" fill="none" xmlns="http://www.w3.org/2000/svg">
<path d="M1.50072 2.191C1.6801 2.49126 2.04275 2.60825 2.34301 2.78373C2.6435 2.96459 2.89332 3.21856 3.06923 3.52197C3.24514 3.82538 3.34141 4.16837 3.34908 4.51901C3.37188 4.75027 3.31976 4.98275 3.2004 5.18215C3.08105 5.38154 2.90077 5.5373 2.68617 5.62646C2.25332 5.74735 1.82048 5.43929 1.51632 5.10783C1.12349 4.6702 0.820741 4.15945 0.625366 3.60477C0.429991 3.0501 0.34582 2.46236 0.377661 1.87514C0.401058 1.48519 0.568735 0.502515 1.19266 0.705289C1.69179 0.880767 1.25895 1.78545 1.50072 2.191Z" fill="url(#paint0_linear_1130_1782)"/>
<defs>
<linearGradient id="paint0_linear_1130_1782" x1="0.209982" y1="3.96917" x2="6.42579" y2="0.841773" gradientUnits="userSpaceOnUse">
<stop stop-opacity="0"/>
<stop offset="0.99"/>
</linearGradient>
</defs>
</svg>
