<svg width="165" height="111" viewBox="0 0 165 111" fill="none" xmlns="http://www.w3.org/2000/svg">
<path opacity="0.18" d="M10.4499 104.506C-3.26855 94.5704 0.13572 70.8419 1.02871 63.1988C1.52394 58.9913 2.55731 54.7837 4.68644 51.1806C10.8204 40.7923 23.8837 38.1679 33.5389 31.3633C44.282 23.8333 51.1218 10.8441 62.6838 4.79984C69.0478 1.47357 76.297 0.572779 83.398 0.17503C96.2897 -0.550278 110.398 0.670267 119.979 9.77171C126.909 16.3541 130.364 26.0677 136.521 33.4495C141.949 39.9617 149.28 44.4266 154.962 50.697C163.4 60.0012 167.713 74.2383 163.151 86.163C158.912 97.2103 152.423 104.46 149.058 105.551C138.256 109.061 114.649 109.486 103.352 110.289C91.2438 111.147 80.3446 109.268 68.2133 109.307C49.4957 109.369 23.9578 110.402 10.4655 104.491" fill="#9C0808"/>
</svg>
