<svg width="37" height="37" viewBox="0 0 37 37" fill="none" xmlns="http://www.w3.org/2000/svg">
<path d="M7.95623 24.1031L4.13168 27.9276L8.37783 32.1738L12.2626 28.4095C13.2043 28.9658 14.2175 29.3914 15.2741 29.6743V36.1489H21.297V29.7044C22.3536 29.4215 23.3667 28.996 24.3084 28.4396L28.133 32.2641L32.3791 28.018L28.6148 24.1031C29.1712 23.1613 29.5967 22.1482 29.8796 21.0916H36.3542V15.0687H29.9097C29.6268 14.0121 29.2013 12.999 28.6449 12.0573L32.4695 8.23272L28.1932 3.89623L24.3084 7.75089C23.3667 7.19452 22.3536 6.769 21.297 6.48608V0.0114555H15.2741V6.45597C14.2175 6.73889 13.2043 7.1644 12.2626 7.72078L8.37783 3.89623L4.10157 8.17249L7.95623 12.0573C7.39986 12.999 6.97434 14.0121 6.69142 15.0687H0.216797V21.0916H6.66131C6.95371 22.1498 7.38938 23.163 7.95623 24.1031ZM18.2855 12.0573C19.4767 12.0573 20.6412 12.4105 21.6317 13.0723C22.6221 13.7341 23.3941 14.6748 23.85 15.7753C24.3058 16.8759 24.4251 18.0869 24.1927 19.2552C23.9603 20.4235 23.3867 21.4967 22.5444 22.339C21.702 23.1813 20.6289 23.755 19.4605 23.9874C18.2922 24.2198 17.0812 24.1005 15.9806 23.6446C14.8801 23.1888 13.9395 22.4168 13.2777 21.4263C12.6158 20.4359 12.2626 19.2714 12.2626 18.0802C12.2626 16.4828 12.8972 14.9509 14.0267 13.8213C15.1562 12.6918 16.6881 12.0573 18.2855 12.0573Z" fill="#800303"/>
</svg>
