<svg width="91" height="117" viewBox="0 0 91 117" fill="none" xmlns="http://www.w3.org/2000/svg">
<path d="M78.6193 44.6092H76.1132V30.9061C76.1132 13.8639 62.2493 0 45.2065 0C28.1654 0 14.3009 13.8639 14.3009 30.9061V44.6092H11.793C5.28021 44.6092 0 49.8888 0 56.4022V93.0167C0 106.262 10.7371 117 23.9826 117H66.4297C79.6752 117 90.4124 106.262 90.4124 93.0167V56.4022C90.4124 49.8888 85.1327 44.6092 78.6193 44.6092ZM49.5975 81.0488V95.9441C49.5975 98.3689 47.6313 100.335 45.2065 100.335C42.7816 100.335 40.8155 98.3689 40.8155 95.9441V81.0488C37.4704 79.4178 35.1603 75.995 35.1603 72.0234C35.1603 66.4753 39.6583 61.9767 45.2065 61.9767C50.7552 61.9767 55.2533 66.4747 55.2533 72.0234C55.2533 75.995 52.9419 79.4184 49.5975 81.0488ZM64.9362 44.6092H25.4791V30.9061C25.4791 20.0275 34.329 11.177 45.207 11.177C56.0863 11.177 64.9362 20.0275 64.9362 30.9061V44.6092Z" fill="#800303"/>
</svg>
