<svg width="9" height="10" viewBox="0 0 9 10" fill="none" xmlns="http://www.w3.org/2000/svg">
<path d="M3.96151 1.48461C4.8467 0.868488 5.99706 0.392749 6.99143 0.821695C7.38044 1.0184 7.71135 1.31327 7.95141 1.67712C8.19148 2.04098 8.33237 2.46121 8.36015 2.89623C8.40514 3.76638 8.25319 4.63546 7.91562 5.43871C7.57324 6.47036 7.03722 7.42724 6.33631 8.25805C5.6248 9.09091 4.61874 9.6163 3.52867 9.72427C2.98647 9.76651 2.44347 9.6532 1.96342 9.39763C1.48337 9.14207 1.08619 8.75485 0.818513 8.28145C0.553817 7.64897 0.431345 6.96605 0.459759 6.281C0.411152 5.75454 0.470871 5.2237 0.635235 4.7212C1.06418 3.64884 3.05293 2.11633 3.96151 1.48461Z" fill="#F7AF87"/>
</svg>
