<svg width="5" height="7" viewBox="0 0 5 7" fill="none" xmlns="http://www.w3.org/2000/svg">
<path d="M1.06856 3.80156C1.50018 3.85116 1.9354 3.74616 2.29691 3.5052C2.48601 3.41598 2.65061 3.28216 2.77654 3.11525C3.0963 2.61221 2.74535 1.9142 2.97542 1.36827C3.08886 1.16959 3.24688 0.999974 3.43702 0.872759C3.62717 0.745544 3.84426 0.664212 4.07118 0.635162C4.23068 0.582224 4.40302 0.582224 4.56252 0.635162C4.68149 0.715035 4.77729 0.824859 4.84028 0.953568C4.90326 1.08228 4.9312 1.22532 4.92127 1.36827C5.00065 2.60403 4.60444 3.82337 3.81381 4.77643C3.41815 5.2451 2.93139 5.62849 2.38306 5.90332C1.83474 6.17815 1.23628 6.33871 0.62402 6.37523C0.561574 6.38397 0.497935 6.37448 0.440743 6.34794C0.378096 6.30594 0.333546 6.2419 0.315956 6.16856C0.192149 5.8159 0.163003 5.43694 0.231428 5.06949C0.299853 4.70205 0.463456 4.35898 0.705907 4.07452" fill="url(#paint0_linear_1130_1781)"/>
<defs>
<linearGradient id="paint0_linear_1130_1781" x1="5.72457" y1="4.92072" x2="-5.17065" y2="0.0697358" gradientUnits="userSpaceOnUse">
<stop stop-opacity="0"/>
<stop offset="0.99"/>
</linearGradient>
</defs>
</svg>
