<svg width="38" height="34" viewBox="0 0 38 34" fill="none" xmlns="http://www.w3.org/2000/svg">
<path d="M1.55804 31.3483C1.0381 27.6282 0.696245 23.8872 0.532466 20.1255C0.462275 18.4682 0.489573 16.616 1.60093 15.3954C1.89379 15.1282 2.15543 14.8286 2.38083 14.5024C2.56562 14.084 2.66758 13.6338 2.6811 13.1766C3.10224 9.62416 5.67202 6.65663 8.62004 4.63279C11.8504 2.42077 15.5959 1.07782 19.4958 0.733284C20.7497 0.596936 22.017 0.650839 23.2549 0.893166C24.4993 1.19686 25.6941 1.6761 26.8034 2.31648C28.566 3.27186 30.2623 4.42612 31.514 5.98982C32.7658 7.55352 33.534 9.58516 33.2688 11.57C34.128 11.9376 34.8998 12.4826 35.5336 13.1695C36.1673 13.8563 36.6487 14.6694 36.946 15.5553C37.5207 17.3934 37.704 19.3315 37.4842 21.2447C37.0942 25.7993 35.3628 30.4748 31.7285 33.2435C31.787 30.0592 31.0809 26.9073 29.6696 24.0523C29.1297 23.0793 28.6391 22.0797 28.1995 21.0575C27.7854 19.9631 27.5842 18.7997 27.6067 17.6298C26.0859 18.4409 25.1929 20.1021 23.7579 21.0614C22.8402 21.6175 21.823 21.9896 20.7631 22.1572C17.3522 22.8308 13.8319 22.708 10.4762 21.7984C9.15037 21.4397 7.46189 21.0653 6.62739 22.1572C6.10876 22.8318 6.19845 23.7677 6.12826 24.6178C6.01284 25.5441 5.78903 26.4537 5.46145 27.3279L3.39471 33.5671C2.6928 32.9705 1.69062 32.2647 1.55804 31.3483Z" fill="#800303"/>
</svg>
