<svg width="18" height="17" viewBox="0 0 18 17" fill="none" xmlns="http://www.w3.org/2000/svg">
<path d="M0.655221 6.55366C0.30894 7.14874 0.10601 7.81629 0.0625 8.50341C0.0881978 8.90744 0.185919 9.30363 0.35106 9.67326C1.77828 13.1828 4.73411 14.9532 7.58464 15.7721C8.44015 16.0387 9.32875 16.1844 10.2246 16.2049C12.9153 16.2049 15.5747 14.3566 17.193 11.3734C17.2876 11.2206 17.3475 11.0489 17.3685 10.8704C17.3595 10.6384 17.2939 10.4122 17.1774 10.2114C16.1714 8.04327 16.3546 5.24732 16.6198 2.70095C16.6603 2.49045 16.6469 2.27315 16.5808 2.06923C16.5409 1.99183 16.4858 1.92326 16.4188 1.86765C16.3518 1.81204 16.2743 1.77052 16.1909 1.74557C14.4478 1.01246 12.576 1.4687 10.7315 1.39851C8.19687 1.30492 5.74018 0.13897 3.2016 0.135071C2.07074 0.135071 1.98495 0.55622 1.82507 1.97174C1.68439 3.55208 1.28935 5.09931 0.655221 6.55366Z" fill="#F7AF87"/>
</svg>
