<svg width="99" height="99" viewBox="0 0 99 99" fill="none" xmlns="http://www.w3.org/2000/svg">
<path d="M52.5648 86.3067H43.4043V77.5878C40.2409 77.4234 37.2916 76.9723 34.5571 76.2343C31.8224 75.4961 29.6388 74.632 28.0061 73.6415L30.7274 62.8087C32.6397 63.9263 34.8803 64.8854 37.4493 65.686C40.0181 66.4867 42.8051 66.9056 45.8102 66.9427C48.5603 66.929 50.84 66.4162 52.6494 65.4041C54.4586 64.3922 55.3967 62.9633 55.4635 61.1174C55.4564 59.3617 54.5608 57.8467 52.7766 56.5723C50.9923 55.298 48.3618 54.0884 44.8849 52.9432C39.9445 51.3167 36.0068 49.1674 33.0722 46.4957C30.1374 43.8238 28.6343 40.2416 28.5629 35.7493C28.583 31.5233 29.9405 27.947 32.6351 25.0204C35.3299 22.0939 39.2403 20.1404 44.3666 19.1602V10.3584H53.4579V18.5117C56.5016 18.6276 59.1111 18.9749 61.2864 19.554C63.4618 20.1329 65.3089 20.8046 66.8276 21.5688L64.1218 32.0852C63.0165 31.4548 61.3489 30.7655 59.1189 30.0171C56.889 29.2688 53.9639 28.8613 50.344 28.7946C47.3801 28.8534 45.2979 29.4175 44.0971 30.4869C42.8965 31.5562 42.3177 32.7779 42.361 34.1521C42.3247 35.6183 43.2134 36.961 45.0266 38.1805C46.8399 39.4 49.7955 40.7193 53.8932 42.1383C59.4033 44.0664 63.356 46.4349 65.7514 49.2437C68.147 52.0527 69.3171 55.5721 69.2618 59.802C69.2602 64.0491 67.8656 67.7148 65.078 70.7988C62.2904 73.8828 58.1193 75.9011 52.5648 76.8536V86.3067ZM98.0565 90.289C95.6934 93.094 93.094 95.6934 90.289 98.0565L65.3358 73.1034C66.4339 72.3649 67.4052 71.5285 68.2495 70.5945C70.0022 68.6554 71.2041 66.4867 71.8553 64.0879L98.0565 90.289ZM0 7.7674C2.36303 4.96242 4.96242 2.36303 7.7674 0L31.0035 23.2361L29.8567 24.3584C27.4807 26.9387 26.6021 30.4821 26.3053 34.0729L0 7.7674Z" fill="#800303"/>
</svg>
