<svg width="118" height="118" viewBox="0 0 118 118" fill="none" xmlns="http://www.w3.org/2000/svg">
<path fill-rule="evenodd" clip-rule="evenodd" d="M59 118C26.4136 118 0 91.5864 0 59C0 26.4136 26.4136 0 59 0C91.5864 0 118 26.4136 118 59C118 91.5864 91.5864 118 59 118ZM44.7515 58.8746L40.1311 63.5614L57.5914 81.125L95.875 42.5501L91.2546 37.8632L57.5877 71.7514L44.7515 58.8746ZM52.5321 57.7315L57.1599 62.4257L77.8689 41.5618L73.2485 36.875L52.5321 57.7315ZM44.1394 75.5421L26.7381 57.8937L22.125 62.5769L39.5816 80.1367L44.1394 75.5421Z" fill="#800303"/>
</svg>
