<svg width="5" height="8" viewBox="0 0 5 8" fill="none" xmlns="http://www.w3.org/2000/svg">
<path d="M2.55009 1.30966C2.72468 1.14362 2.9312 1.01479 3.1571 0.930998C3.38301 0.847206 3.62358 0.8102 3.86422 0.822223C4.04803 0.862029 4.22055 0.942613 4.36903 1.05803C4.51752 1.17344 4.63819 1.32074 4.72212 1.48904C4.88802 1.82691 4.9785 2.1968 4.98728 2.5731C5.07668 4.07715 4.58535 5.55813 3.61466 6.71048C3.08043 7.3344 2.28493 7.88033 1.48553 7.68925C1.32541 7.66088 1.17816 7.58317 1.06438 7.46698C0.977014 7.35779 0.913283 7.23164 0.877211 7.09653C0.566146 5.91676 0.54474 4.6793 0.814818 3.48948C0.904506 2.97085 0.955192 2.46392 1.39194 2.12856C1.75459 1.84779 2.17574 1.59043 2.55009 1.30966Z" fill="#F7AF87"/>
</svg>
