<svg width="54" height="72" viewBox="0 0 54 72" fill="none" xmlns="http://www.w3.org/2000/svg">
<path d="M53.5753 67.7659C29.2619 77.4874 0.623961 66.9548 0.623961 66.9548V61.1055C0.405589 51.9729 5.47495 41.1401 14.6973 38.4104C23.9196 35.6808 23.2762 32.4871 23.2762 32.4871C14.978 25.3354 13.9174 -0.600248 32.7637 0.476015C37.4431 0.741181 41.947 4.37552 43.3586 16.1364C44.7703 27.8973 35.5596 33.033 35.5596 33.033C35.4355 33.6104 35.4798 34.2113 35.6871 34.7643C35.8945 35.3173 36.2563 35.7992 36.7295 36.1526C37.4929 36.7412 38.3688 37.1672 39.3032 37.4043C55.8956 43.1639 53.5753 67.7659 53.5753 67.7659Z" fill="#F7AF87"/>
</svg>
