<svg width="25" height="25" viewBox="0 0 25 25" fill="none" xmlns="http://www.w3.org/2000/svg">
<path d="M1.29189 10.3799C4.08664 16.4668 9.05957 21.3063 15.2422 23.9299L16.2333 24.3714C18.5007 25.3817 21.1662 24.6142 22.5492 22.5528L23.8443 20.6224C24.2654 19.9948 24.1372 19.1494 23.549 18.6749L19.1567 15.1314C18.5116 14.611 17.5629 14.7322 17.0694 15.3982L15.7106 17.2317C12.224 15.5118 9.39329 12.6811 7.67342 9.19448L9.50691 7.83572C10.1729 7.34219 10.2941 6.39353 9.77363 5.74838L6.23007 1.35597C5.75561 0.767848 4.9105 0.639563 4.28289 1.06039L2.33916 2.3637C0.264907 3.75453 -0.498357 6.44201 0.535211 8.71548L1.29076 10.3774L1.29189 10.3799Z" fill="white"/>
</svg>
