<svg width="24" height="42" viewBox="0 0 24 42" fill="none" xmlns="http://www.w3.org/2000/svg">
<path d="M16.95 0.46875C14.1901 0.46875 11.5432 1.56512 9.59167 3.51667C7.64012 5.46822 6.54375 8.11509 6.54375 10.875V16.6687H0.975C0.695405 16.6687 0.46875 16.8954 0.46875 17.175V24.825C0.46875 25.1046 0.695406 25.3312 0.975 25.3312H6.54375V41.025C6.54375 41.3046 6.7704 41.5312 7.05 41.5312H14.7C14.9796 41.5312 15.2062 41.3046 15.2062 41.025V25.3312H20.8243C21.0566 25.3312 21.2591 25.1731 21.3155 24.9478L23.228 17.2978C23.3078 16.9783 23.0662 16.6687 22.7368 16.6687H15.2062V10.875C15.2062 10.4125 15.39 9.969 15.717 9.64198C16.044 9.31497 16.4875 9.13125 16.95 9.13125H22.8C23.0796 9.13125 23.3062 8.90459 23.3062 8.625V0.975C23.3062 0.695406 23.0796 0.46875 22.8 0.46875H16.95Z" fill="white"/>
</svg>
