<svg width="42" height="42" viewBox="0 0 42 42" fill="none" xmlns="http://www.w3.org/2000/svg">
<path d="M21 13.6875C16.9614 13.6875 13.6875 16.9614 13.6875 21C13.6875 25.0386 16.9614 28.3125 21 28.3125C25.0386 28.3125 28.3125 25.0386 28.3125 21C28.3125 16.9614 25.0386 13.6875 21 13.6875Z" fill="white"/>
<path fill-rule="evenodd" clip-rule="evenodd" d="M9.23144 0.933285C16.9897 0.0661837 25.0103 0.0661837 32.7686 0.933285C37.04 1.41068 40.4852 4.77618 40.9865 9.06254C41.9141 16.9938 41.9141 25.0062 40.9865 32.9374C40.4852 37.2238 37.04 40.5893 32.7686 41.0667C25.0103 41.9338 16.9897 41.9338 9.23145 41.0667C4.96005 40.5893 1.51486 37.2238 1.01353 32.9374C0.0859019 25.0062 0.0859019 16.9938 1.01353 9.06254C1.51486 4.77618 4.96005 1.41068 9.23144 0.933285ZM32.25 7.49998C31.0073 7.49998 30 8.50734 30 9.74998C30 10.9926 31.0073 12 32.25 12C33.4926 12 34.5 10.9926 34.5 9.74998C34.5 8.50734 33.4926 7.49998 32.25 7.49998ZM10.3125 21C10.3125 15.0974 15.0974 10.3125 21 10.3125C26.9025 10.3125 31.6875 15.0974 31.6875 21C31.6875 26.9025 26.9025 31.6875 21 31.6875C15.0974 31.6875 10.3125 26.9025 10.3125 21Z" fill="white"/>
</svg>
