<svg width="43" height="44" viewBox="0 0 43 44" fill="none" xmlns="http://www.w3.org/2000/svg">
<path d="M5.1875 0.21875C2.54689 0.21875 0.40625 2.35939 0.40625 5C0.40625 7.64061 2.54689 9.78125 5.1875 9.78125C7.82811 9.78125 9.96875 7.64061 9.96875 5C9.96875 2.35939 7.82811 0.21875 5.1875 0.21875Z" fill="white"/>
<path d="M0.6875 13.7188C0.53217 13.7188 0.40625 13.8447 0.40625 14V43.25C0.40625 43.4053 0.53217 43.5312 0.6875 43.5312H9.6875C9.84283 43.5312 9.96875 43.4053 9.96875 43.25V14C9.96875 13.8447 9.84283 13.7188 9.6875 13.7188H0.6875Z" fill="white"/>
<path d="M15.3125 13.7188C15.1572 13.7188 15.0312 13.8447 15.0312 14V43.25C15.0312 43.4053 15.1572 43.5312 15.3125 43.5312H24.3125C24.4678 43.5312 24.5938 43.4053 24.5938 43.25V27.5C24.5938 26.3811 25.0382 25.3081 25.8294 24.5169C26.6206 23.7257 27.6936 23.2812 28.8125 23.2812C29.9314 23.2812 31.0044 23.7257 31.7956 24.5169C32.5868 25.3081 33.0312 26.3811 33.0312 27.5V43.25C33.0312 43.4053 33.1572 43.5312 33.3125 43.5312H42.3125C42.4678 43.5312 42.5938 43.4053 42.5938 43.25V23.8556C42.5938 18.3954 37.8449 14.1237 32.4121 14.6176C30.7367 14.7699 29.0802 15.1864 27.5333 15.8494L24.5938 17.1092V14C24.5938 13.8447 24.4678 13.7188 24.3125 13.7188H15.3125Z" fill="white"/>
</svg>
