<svg width="30" height="24" viewBox="0 0 30 24" fill="none" xmlns="http://www.w3.org/2000/svg">
<path fill-rule="evenodd" clip-rule="evenodd" d="M7.5082 0.625398C12.4928 0.179718 17.5072 0.179718 22.4918 0.625398L24.6413 0.817594C26.7839 1.00916 28.515 2.64594 28.8261 4.77438C29.5267 9.56601 29.5267 14.4341 28.8261 19.2257C28.515 21.3541 26.7839 22.9909 24.6413 23.1825L22.4918 23.3747C17.5072 23.8204 12.4928 23.8204 7.5082 23.3747L5.35863 23.1825C3.21611 22.9909 1.48501 21.3541 1.17384 19.2257C0.473305 14.4341 0.473305 9.56602 1.17384 4.77438C1.48501 2.64594 3.21611 1.00916 5.35863 0.817594L7.5082 0.625398ZM6.29537 4.68954C5.9661 4.51224 5.56786 4.5211 5.2468 4.71286C4.92574 4.90463 4.72914 5.25107 4.72914 5.62504V19.0834C4.72914 19.6702 5.20483 20.1459 5.79164 20.1459C6.37844 20.1459 6.85414 19.6702 6.85414 19.0834V7.40389L14.4962 11.5189C14.8107 11.6882 15.1892 11.6882 15.5037 11.5189L23.1458 7.40389V19.0834C23.1458 19.6702 23.6215 20.1459 24.2083 20.1459C24.7951 20.1459 25.2708 19.6702 25.2708 19.0834V5.62504C25.2708 5.25107 25.0742 4.90463 24.7531 4.71286C24.4321 4.5211 24.0338 4.51224 23.7046 4.68954L15 9.37663L6.29537 4.68954Z" fill="white"/>
</svg>
