<svg width="25" height="30" viewBox="0 0 25 30" fill="none" xmlns="http://www.w3.org/2000/svg">
<path d="M7.76042 12.5833C7.76042 9.96573 9.8824 7.84375 12.5 7.84375C15.1176 7.84375 17.2396 9.96573 17.2396 12.5833C17.2396 15.2009 15.1176 17.3229 12.5 17.3229C9.8824 17.3229 7.76042 15.2009 7.76042 12.5833Z" fill="white"/>
<path fill-rule="evenodd" clip-rule="evenodd" d="M0.503083 10.9462C1.00422 4.86648 6.08475 0.1875 12.1851 0.1875H12.815C18.9153 0.1875 23.9958 4.86648 24.497 10.9462C24.7668 14.2196 23.7557 17.4699 21.6766 20.0126L14.6867 28.561C13.5566 29.9432 11.4435 29.9432 10.3134 28.561L3.32347 20.0126C1.24439 17.4699 0.233265 14.2196 0.503083 10.9462ZM12.5 5.65625C8.67428 5.65625 5.57292 8.75761 5.57292 12.5833C5.57292 16.4091 8.67428 19.5104 12.5 19.5104C16.3257 19.5104 19.4271 16.4091 19.4271 12.5833C19.4271 8.75761 16.3257 5.65625 12.5 5.65625Z" fill="white"/>
</svg>
