<svg width="45" height="37" viewBox="0 0 45 37" fill="none" xmlns="http://www.w3.org/2000/svg">
<path d="M44.5719 5.01128C44.7023 4.82955 44.5097 4.5949 44.3012 4.67574C42.819 5.25023 41.27 5.63784 39.69 5.82885C41.4493 4.77782 42.8069 3.1779 43.5597 1.2837C43.6364 1.09074 43.4257 0.918422 43.2439 1.0188C41.6088 1.92181 39.8453 2.57205 38.0135 2.94654C37.9368 2.96222 37.8578 2.93611 37.804 2.87931C36.4293 1.42879 34.6197 0.463007 32.6471 0.129266C30.633 -0.211485 28.5627 0.125907 26.761 1.08853C24.9593 2.05115 23.5281 3.58455 22.6918 5.44823C21.8966 7.22024 21.6821 9.19554 22.0743 11.0926C22.1047 11.2398 21.9895 11.3787 21.8395 11.3694C18.2753 11.1481 14.793 10.2001 11.607 8.58254C8.42905 6.96913 5.61491 4.72461 3.33594 1.98742C3.2348 1.86594 3.0431 1.88166 2.96941 2.0215C2.26028 3.36715 1.88899 4.86699 1.89 6.39135C1.88712 7.90871 2.25949 9.40324 2.97395 10.7419C3.68841 12.0805 4.72279 13.2217 5.985 14.0639C4.64642 14.0274 3.33394 13.6965 2.14031 13.0965C1.98648 13.0192 1.80197 13.1293 1.80997 13.3013C1.90305 15.302 2.63757 17.3107 3.90896 18.8518C5.26193 20.4917 7.13983 21.614 9.225 22.0289C8.42233 22.2731 7.58897 22.4019 6.75 22.4114C6.29338 22.406 5.83766 22.3723 5.38546 22.3105C5.21779 22.2876 5.08088 22.4468 5.13957 22.6056C5.76151 24.2874 6.86024 25.755 8.30492 26.8262C9.84944 27.9715 11.7125 28.6068 13.635 28.6439C10.3887 31.1982 6.38074 32.5923 2.25 32.6039C1.82555 32.6052 1.4013 32.5915 0.978035 32.5626C0.739517 32.5464 0.629818 32.8642 0.835413 32.9862C4.86014 35.3746 9.46032 36.6371 14.1525 36.6313C17.6168 36.6673 21.0536 36.0126 24.262 34.7055C27.4705 33.3984 30.3863 31.4651 32.8392 29.0185C35.2921 26.5718 37.2329 23.661 38.5483 20.4559C39.8636 17.2508 40.5271 13.8157 40.5 10.3513V9.27173C40.5 9.2007 40.5336 9.13389 40.5903 9.09109C42.1164 7.93877 43.4585 6.56304 44.5719 5.01128Z" fill="white"/>
</svg>
